<svg width="1920" height="1920" viewBox="0 0 1920 1920" fill="none" xmlns="http://www.w3.org/2000/svg">
<path d="M735.049 1697.16C734.576 1697.09 734.103 1697.02 733.313 1696.43C733.332 1693.45 733.954 1691 733.96 1688.55C734.333 1537.5 734.66 1386.45 734.981 1235.4C735.014 1219.75 735.031 1204.09 734.938 1188.43C734.924 1185.98 734.277 1183.54 734.351 1181.06C737.234 1181.33 739.712 1182.02 742.139 1181.87C749.563 1181.42 756.969 1180.66 764.38 1180.01C776.078 1178.98 787.989 1179 799.425 1176.68C818.673 1172.78 837.837 1168.1 856.617 1162.38C868.981 1158.61 880.838 1152.89 892.502 1147.19C903.865 1141.63 914.741 1135.07 925.741 1128.79C933.254 1124.5 940.578 1119.88 948.048 1115.52C955.695 1111.05 963.412 1106.7 971.107 1102.31C977.575 1098.63 984.061 1094.97 990.529 1091.28C1001.92 1084.79 1013.36 1078.36 1024.69 1071.75C1035.51 1065.44 1046.16 1058.85 1056.98 1052.54C1064.36 1048.24 1071.95 1044.3 1079.35 1040.04C1088.2 1034.96 1096.93 1029.69 1105.74 1024.54C1117.73 1017.53 1129.75 1010.56 1141.75 1003.55C1148.91 999.361 1156.04 995.119 1163.19 990.906C1171.12 986.232 1179.02 981.507 1186.99 976.904C1204.59 966.734 1222.28 956.708 1239.85 946.471C1254.8 937.76 1269.57 928.748 1284.52 920.039C1292.94 915.131 1301.64 910.682 1310.09 905.815C1318.86 900.762 1327.45 895.389 1336.19 890.27C1351.49 881.304 1366.85 872.436 1382.17 863.504C1393.29 857.021 1404.37 850.452 1415.51 844.015C1424.32 838.93 1433.28 834.106 1442.04 828.943C1448.26 825.275 1454.14 821.037 1460.39 817.416C1466.53 813.853 1473.06 810.959 1479.21 807.397C1494.15 798.738 1508.93 789.794 1523.85 781.093C1535.33 774.393 1546.93 767.881 1558.48 761.298C1566.5 756.728 1574.54 752.192 1582.56 747.621C1590.58 743.052 1598.62 738.53 1606.57 733.856C1613.8 729.61 1620.86 725.093 1628.1 720.866C1637.71 715.251 1647.45 709.853 1657.08 704.267C1670.48 696.495 1683.87 688.703 1697.19 680.794C1708.61 674.013 1720.25 667.527 1731.18 660.018C1739.31 654.43 1746.66 647.631 1754.01 640.987C1766.85 629.381 1776.3 615.372 1782.07 599.012C1783.69 594.416 1784.76 589.626 1786.12 585.396C1786.11 620.585 1786.06 655.301 1785.7 690.304C1785.25 700.453 1785.18 710.317 1784.93 720.177C1784.73 728.445 1784.1 736.706 1784.05 744.972C1783.92 765.993 1783.98 787.016 1784.06 808.038C1784.06 809.38 1784.83 810.719 1785.24 812.524C1785.16 851.998 1785.08 891.008 1784.71 930.307C1784.27 932.404 1784.03 934.211 1784.03 936.018C1784 985.063 1784.02 1034.11 1783.97 1083.15C1783.97 1086.93 1783.56 1090.7 1783.37 1094.8C1783.4 1095.81 1783.39 1096.48 1782.96 1097.11C1781.76 1098.11 1780.26 1099.21 1780.34 1100.18C1780.56 1102.53 1781.5 1104.82 1782.14 1107.52C1780.26 1113.05 1778.79 1118.39 1776.45 1123.31C1768.11 1140.93 1755.49 1155.06 1740.29 1167.1C1720.39 1182.85 1697.63 1193.99 1676 1206.92C1655.94 1218.91 1635.38 1230.07 1615.18 1241.84C1597.3 1252.26 1579.67 1263.15 1561.81 1273.61C1540.48 1286.11 1519.02 1298.4 1497.6 1310.74C1482.51 1319.42 1467.34 1327.95 1452.29 1336.71C1432.09 1348.47 1412.04 1360.5 1391.81 1372.22C1362.11 1389.41 1332.27 1406.36 1302.55 1423.53C1275.97 1438.9 1249.47 1454.4 1222.96 1469.9C1195.14 1486.16 1167.38 1502.51 1139.56 1518.77C1115.4 1532.91 1091.22 1547.04 1067 1561.09C1040.59 1576.42 1014.14 1591.66 987.691 1606.93C967.314 1618.69 946.935 1630.45 926.537 1642.17C915.187 1648.7 903.887 1655.32 892.407 1661.61C864.844 1676.71 835.105 1685.85 804.31 1690.7C783.21 1694.02 761.663 1694.5 740.319 1696.29C738.55 1696.44 736.805 1696.87 735.049 1697.16Z" fill="#FDCB50"/>
<path d="M733.923 1181.1C734.277 1183.54 734.924 1185.98 734.939 1188.43C735.032 1204.09 735.014 1219.75 734.981 1235.4C734.66 1386.45 734.334 1537.5 733.96 1688.55C733.954 1691 733.332 1693.45 732.978 1696.3C729.276 1696.78 725.593 1696.85 721.222 1696.75C719.684 1696.38 718.833 1696.19 717.907 1695.83C717.559 1695.76 717.288 1695.87 716.676 1696.01C715.881 1696.02 715.426 1695.98 714.721 1695.67C711.303 1695.33 708.134 1695.27 704.512 1695.22C695.628 1694.36 687.149 1693.81 678.778 1692.55C656.223 1689.15 633.878 1684.57 612.684 1675.95C597.458 1669.75 582.244 1663.28 567.782 1655.52C546.692 1644.2 526.309 1631.58 505.576 1619.59C479.978 1604.79 454.317 1590.1 428.71 1575.32C404.514 1561.35 380.373 1547.29 356.171 1533.34C335.73 1521.55 315.213 1509.89 294.769 1498.11C269.693 1483.66 244.794 1468.89 219.562 1454.72C197.266 1442.19 175.824 1428.64 159.123 1408.87C144.406 1391.45 135.471 1371.71 135.59 1348.39C136.006 1267.25 136.384 1186.1 136.629 1104.96C136.832 1037.63 136.82 970.306 136.917 902.979C136.932 892.981 137.025 882.984 137.345 872.71C137.454 869.955 137.299 867.476 137.116 864.625C137.105 863.51 137.122 862.766 137.284 861.921C137.331 861.54 137.234 861.26 137.108 860.611C137.103 859.499 137.126 858.758 137.293 857.917C137.485 857.713 137.603 857.57 137.57 857.51C137.463 857.318 137.301 857.156 137.133 856.609C137.127 855.489 137.149 854.742 137.398 853.744C137.879 852.313 138.133 851.133 138.388 849.954C141.265 858.742 144.574 867.159 148.582 875.23C156.557 891.291 168.911 903.538 182.81 914.661C200.643 928.933 221.187 938.603 240.576 950.227C257.473 960.356 274.578 970.137 291.592 980.07C300.324 985.168 309.016 990.338 317.801 995.344C333.797 1004.46 349.898 1013.39 365.862 1022.55C378.918 1030.05 391.814 1037.82 404.828 1045.4C413.392 1050.38 422.055 1055.19 430.645 1060.13C438.113 1064.42 445.517 1068.83 452.99 1073.11C463.464 1079.12 474.028 1084.97 484.459 1091.06C495.033 1097.22 505.43 1103.69 516.02 1109.83C527.023 1116.2 538.163 1122.34 549.248 1128.58C562.781 1136.19 575.811 1144.97 589.984 1151.1C607.26 1158.57 625.194 1164.98 643.391 1169.77C672.953 1177.55 703.189 1181.78 733.923 1181.1Z" fill="#F7B930"/>
<path d="M1783.38 1097.15C1783.39 1096.48 1783.4 1095.81 1783.73 1094.61C1784.38 1092.5 1784.95 1090.94 1784.98 1089.36C1785.08 1082.87 1785.02 1076.37 1785.02 1069.88C1785.02 1023.26 1785.01 976.639 1785 930.018C1785.08 891.008 1785.16 851.998 1785.48 812.193C1785.83 810.576 1786.03 809.755 1786.03 808.933C1786.03 769.295 1786.02 729.656 1786.01 690.018C1786.06 655.301 1786.11 620.585 1786.16 584.938C1787.22 568.71 1785.58 553.7 1779.3 539.672C1770.43 519.851 1756.36 503.93 1739.07 491.107C1729.66 484.129 1719.3 478.403 1709.23 472.349C1694.92 463.748 1680.51 455.309 1666.09 446.906C1653.2 439.401 1640.2 432.092 1627.31 424.597C1616.32 418.212 1605.49 411.564 1594.47 405.245C1574.86 393.998 1555.11 382.978 1535.5 371.736C1520.73 363.272 1506.1 354.565 1491.36 346.051C1478.62 338.693 1465.76 331.547 1453.04 324.143C1437.73 315.225 1422.57 306.048 1407.26 297.145C1393.94 289.406 1380.54 281.812 1367.09 274.302C1354.42 267.224 1342.03 259.475 1328.82 253.571C1307.79 244.171 1285.72 237.312 1263.07 233.153C1245.01 229.837 1226.68 227.232 1208.37 226.199C1178.46 224.512 1148.48 225.607 1118.99 231.258C1102.15 234.483 1085.5 238.968 1069.04 243.815C1050.06 249.404 1032.42 258.344 1015.26 268.086C1001.33 275.985 987.648 284.305 973.831 292.392C961.572 299.567 949.256 306.644 937.003 313.829C930.419 317.691 923.97 321.785 917.362 325.603C904.465 333.056 891.463 340.327 878.572 347.789C866.653 354.688 854.857 361.797 842.944 368.705C830.345 376.011 817.61 383.083 805.047 390.449C790.349 399.065 775.846 408.014 761.122 416.584C747.425 424.556 733.515 432.161 719.763 440.039C710.591 445.294 701.568 450.808 692.413 456.094C677.517 464.695 662.524 473.128 647.654 481.772C632.321 490.684 617.133 499.845 601.794 508.746C584.713 518.658 567.487 528.319 550.407 538.231C526.532 552.087 502.745 566.092 478.899 579.996C465.72 587.681 452.481 595.264 439.299 602.943C422.41 612.78 405.59 622.736 388.669 632.517C367.993 644.467 347.19 656.197 326.542 668.193C309.225 678.254 292.079 688.61 274.804 698.745C261.529 706.534 248.215 714.261 234.835 721.87C226.089 726.843 217.194 731.557 208.266 736.281C208.166 736.176 207.966 735.965 207.966 735.965C208.631 733.882 209.297 731.799 210.026 729.517C212.272 729.377 214.952 729.21 218.867 728.965C216.868 726.748 215.93 725.709 214.992 724.669C215.167 724.152 215.341 723.634 215.516 723.117C217.943 723.727 220.37 724.338 222.903 724.975C228.108 722.128 233.862 719.097 239.468 715.811C240.477 715.22 240.873 713.584 241.552 712.43C240.402 711.996 239.217 711.153 238.113 711.25C237.122 711.336 236.301 712.756 235.258 713.032C234.252 713.298 233.059 712.855 231.947 712.723C232.272 711.504 232.556 709.244 232.927 709.229C236.096 709.106 239.752 708.492 242.312 709.835C244.38 710.92 246.039 712.231 247.824 710.727C249.055 709.689 249.356 707.548 250.217 705.569C253.677 708.014 255.535 706.341 258.601 702.874C261.671 699.404 267.432 698.315 272.618 695.9C272.801 694.951 273.131 693.236 273.49 691.375C275.856 691.99 277.982 692.543 280.721 693.255C280.185 691.456 279.892 690.47 279.456 689.007C281.509 689.007 283.155 688.961 284.797 689.017C287.328 689.104 288.793 688.304 289.147 685.438C289.292 684.257 290.845 682.424 291.895 682.324C296.569 681.878 296.587 682.066 296.594 677.743C298.722 678.435 300.866 679.59 303.031 679.63C304.009 679.647 305.028 677.445 306.229 676.01C304.588 675.23 303.531 674.728 302.474 674.226C302.311 673.727 302.147 673.228 301.984 672.729C313.318 677.083 316.12 667.116 323.512 661.928C323.54 662.013 323.603 663.464 324.197 663.73C325.527 664.326 327.14 664.555 328.597 664.436C328.996 664.403 329.813 662.325 329.482 661.665C326.988 656.682 330.623 657.323 333.389 657.306C335.009 657.297 336.735 658.061 338.23 657.707C341.98 656.818 345.921 655.792 345.37 651.153C348.347 650.55 350.966 650.019 353.584 649.488C353.933 648.854 354.282 648.22 354.63 647.585C353.485 647.145 352.34 646.705 351.157 646.251C354.197 639.117 358.703 649.901 361.882 644.603C361.184 643.774 360.358 642.794 359.083 641.281C362.46 641.281 365.886 642.243 367.895 640.969C369.435 639.993 369.187 636.196 369.844 633.144C370.676 633.925 371.306 634.907 372.187 635.256C373.684 635.849 375.741 636.828 376.854 636.258C380.313 634.489 383.439 632.069 387.098 629.632C386.295 628.467 385.428 627.21 384.307 625.586C385.177 625.378 386.074 624.842 386.576 625.093C393.027 628.331 397.462 624.433 402.228 621.048C404.819 619.208 407.884 618.037 410.787 616.537C409.62 614.749 408.74 613.399 407.859 612.049C408.191 611.673 408.523 611.297 408.855 610.922C410.772 611.854 412.689 612.786 414.956 613.889C418.818 611.195 422.845 608.089 427.168 605.473C430.282 603.588 433.692 602.068 437.144 600.898C442.622 599.042 443.012 598.307 439.716 593.77C443.592 593.195 447.505 592.657 451.398 591.998C452.167 591.868 453.076 591.452 453.549 590.868C455.848 588.026 458.668 586.443 462.319 585.673C463.924 585.335 465.131 583.104 466.519 581.733C466.25 581.162 465.981 580.592 465.712 580.021C467.418 580.326 469.136 580.935 470.827 580.866C473.655 580.751 473.419 575.574 477.717 576.678C478.765 576.947 480.816 573.31 482.712 571.113C487.506 574.776 490.837 567.273 495.92 567.362C495.92 565.543 495.92 563.723 495.92 561.125C496.777 561.271 498.837 561.721 500.922 561.941C502.092 562.065 504.078 562.219 504.374 561.66C507.79 555.203 514.228 554.284 520.713 552.702C520.224 551.219 519.805 549.948 519.104 547.82C523.127 549.233 525.346 544.305 529.823 546.383C531.285 547.061 534.479 544.067 536.852 542.701C538.328 541.851 539.704 540.823 541.203 540.019C544.643 538.174 548.214 536.559 551.575 534.584C555.101 532.512 558.443 530.127 561.928 527.838C561.69 526.361 561.386 524.482 560.89 521.408C565.35 524.554 567.723 526.574 572.054 521.831C576.222 517.266 583.502 515.634 589.205 512.351C593.662 509.786 597.826 506.704 602.07 503.777C604.386 502.179 606.596 500.428 609.451 498.301C609.441 498.185 609.342 496.943 609.254 495.839C609.688 495.602 609.9 495.427 609.95 495.466C617.394 501.135 619.96 488.239 627.367 492.469C626.222 488.981 625.554 486.946 624.704 484.356C634.798 488.598 640.844 481.999 647.674 477.869C651.134 475.778 654.678 473.826 658.419 471.676C657.251 471.467 655.905 471.226 654.028 470.889C656.326 465.793 659.093 467.476 661.382 469.519C664.938 467.45 668.193 465.556 671.449 463.662C671.795 464.014 672.14 464.367 672.486 464.719C672.767 462.816 673.048 460.913 673.398 458.549C679.347 462.256 683.139 455.953 688.298 455.543C688.106 453.648 687.915 451.754 687.658 449.207C688.584 449.276 690.946 448.785 692.451 449.702C695.444 451.524 696.979 450.01 697.825 447.793C698.772 445.31 699.837 443.948 702.724 443.825C703.857 443.776 704.915 441.979 706.067 440.922C708.24 441.032 710.88 441.166 714.853 441.368C712.837 438.694 711.921 437.479 710.586 435.709C715.188 434.975 719.164 434.111 723.185 433.757C728.016 433.332 729.905 431.118 728.788 426.677C728.381 425.061 728.269 423.371 728.022 421.714C728.942 421.662 730.602 421.386 730.664 421.593C731.189 423.329 731.42 425.154 731.782 427.195C736.179 428.614 736.519 428.325 737.478 421.404C741.989 423.933 745.533 424.02 745.405 418.477C753.169 415.026 760.462 412.042 767.456 408.472C768.97 407.7 769.407 404.819 770.351 402.888C775.58 405.419 784.481 401.04 785.448 394.429C787.552 394.217 789.786 393.993 792.263 393.743C792.324 390.474 792.2 386.612 796.982 390.711C797.483 391.141 798.876 391.244 799.362 390.865C802.728 388.243 806.214 385.697 809.166 382.646C811.816 379.907 814.12 377.656 817.153 379.901C828.047 373.456 838.594 367.216 848.284 361.483C849.447 359.021 850.387 357.032 851.327 355.044C852.28 356.057 853.233 357.071 854.856 358.797C855.671 358.385 857.28 357.57 859.399 356.496C857.995 355.355 857.199 354.708 855.629 353.432C859.081 353.432 861.606 353.432 864.614 353.432C864.889 350.775 865.175 348.001 865.67 343.215C869.798 350.902 873.127 349.652 876.293 344.806C876.462 344.547 876.784 344.358 877.074 344.214C881.515 342.009 881.516 342.012 880.446 336.273C885.963 341.06 890.629 337.81 894.955 335.621C898.78 333.686 901.92 330.395 905.72 327.424C905.379 326.754 904.752 325.519 904.125 324.283C904.325 323.854 904.524 323.424 904.723 322.994C906.868 323.894 909.012 324.793 911.959 326.029C911.435 324.26 911.07 323.028 910.698 321.774C910.861 321.619 911.138 321.183 911.304 321.222C918.543 322.916 922.919 316.914 928.708 314.736C930.223 314.166 931.736 313.364 932.978 312.339C935.106 310.584 937.019 308.568 939.807 305.915C945.629 308.868 947.78 299.332 953.869 299.057C955.384 298.988 956.942 297.933 958.308 297.061C959.761 296.132 961.01 294.883 963.285 292.997C965.289 294.041 968.659 294.852 970.32 289.883C970.46 289.465 971.456 289.035 971.999 289.097C976.011 289.552 977.475 287.486 977.248 284.845C982.481 282.895 987.263 281.344 991.761 279.196C992.461 278.861 991.859 275.801 991.859 274.002C991.426 273.983 990.994 273.963 990.561 273.944C990.749 273.702 991.016 273.219 991.115 273.251C996.545 275.016 1000.47 273.524 1004.1 268.882C1005.6 266.957 1009.41 266.611 1012.27 266.016C1017 265.029 1019.28 262.825 1016.78 257.563C1021.2 257.363 1025.05 257.242 1028.89 256.98C1030 256.905 1031.58 256.781 1032.09 256.068C1036.08 250.483 1042.46 250.261 1048.57 248.32C1048.82 247.272 1049.14 245.89 1049.32 245.14C1053.26 245.14 1056.84 245.14 1060.42 245.14C1060.47 244.645 1060.53 244.15 1060.58 243.655C1058.58 243.249 1056.58 242.843 1054.58 242.437C1054.59 241.966 1054.6 241.494 1054.61 241.023C1058.26 241.023 1061.91 241.128 1065.55 240.989C1068.51 240.877 1071.37 241.738 1073.76 238.022C1074.89 236.265 1079.85 237.045 1083.05 236.52C1085.05 236.192 1086.99 235.543 1088.97 235.095C1095.05 233.72 1101.2 232.62 1107.21 230.975C1142.15 221.405 1177.9 224.681 1213.41 224.06C1216.36 224.009 1219.31 224.763 1222.28 225.009C1230.27 225.67 1238.26 226.615 1246.27 226.747C1251.24 226.829 1256.23 225.589 1261.22 225.054C1262.24 224.945 1263.31 225.334 1264.42 226.552C1262.14 226.813 1259.87 227.075 1257.47 227.351C1260.65 232.44 1283.36 234.991 1294.04 232.24C1292.82 233.372 1291.61 234.504 1289.95 236.051C1298.66 239.048 1306.67 243.535 1316.8 241.314C1315.66 242.753 1314.82 243.807 1314.46 244.267C1317.49 245.732 1320.26 247.064 1323.02 248.408C1323.46 248.626 1323.86 248.962 1324.32 249.139C1329.54 251.148 1335.16 251.42 1339.85 255.766C1342.61 258.323 1348.29 257.728 1353.1 258.634C1352.4 260.118 1351.89 261.229 1351.29 262.504C1351.76 262.918 1352.18 263.538 1352.74 263.731C1364.25 267.696 1374.56 273.979 1384.85 280.293C1395.16 286.622 1405.29 293.253 1415.68 299.432C1418.11 300.876 1421.37 301.225 1423.32 296.854C1423.79 298.015 1424.96 299.52 1424.6 300.28C1421.81 306.059 1425.3 305.574 1429.06 305.056C1430.03 304.923 1431.02 305.036 1430.55 305.036C1432.28 307.593 1433 309.747 1434.47 310.622C1440.6 314.259 1447.61 315.97 1453.37 320.76C1458.49 325.018 1465.01 327.6 1470.94 330.874C1471.57 331.227 1472.42 331.186 1473.12 331.455C1475.25 332.275 1477.91 332.635 1479.36 334.139C1481.49 336.345 1482.83 338.953 1486.62 337.205C1487.28 336.9 1488.82 338.13 1489.77 338.887C1492.11 340.757 1494.26 342.867 1496.64 344.68C1498.28 345.92 1500.14 346.862 1501.94 347.868C1505.55 349.882 1509.15 351.906 1512.81 353.819C1516.26 355.62 1519.6 356.714 1522.33 360.468C1525.35 364.634 1530.71 364.565 1536.95 363.302C1536.38 365.179 1535.91 366.752 1535.2 369.108C1538.64 369.108 1541.79 369.108 1545.57 369.108C1543.13 373.027 1545.7 374.232 1548.38 375.722C1553.03 378.309 1557.4 381.419 1562.11 383.879C1564.42 385.082 1566.31 387.625 1570.1 385.597C1571.92 384.62 1575.62 387.137 1578.82 388.189C1578.42 389.327 1577.89 390.797 1577.08 393.066C1579.66 393.066 1581.88 393.066 1584.6 393.066C1589.26 398.089 1594.58 403.333 1603.49 401.947C1602.4 402.611 1601.32 403.274 1599.98 404.098C1600.28 404.853 1600.41 406.056 1600.9 406.225C1605.88 407.953 1610.04 412.738 1616.54 410.563C1616.64 414.516 1617.7 417.923 1622.93 417.222C1623.39 417.16 1624.27 417.828 1624.44 418.335C1626.04 422.838 1628.91 422.447 1630.85 421.079C1633.06 422.818 1634.44 424.197 1636.07 425.131C1640.16 427.462 1644.24 429.846 1648.55 431.706C1651.16 432.835 1654.18 433.027 1657.32 433.706C1655.53 436.89 1656.83 439.001 1660.19 440.629C1667 443.93 1673.58 447.718 1680.45 450.877C1683.16 452.123 1686.4 452.223 1689.68 452.905C1689.24 453.912 1688.74 455.049 1688.07 456.562C1692.12 457.232 1694.66 462.521 1699.65 459.289C1699.96 459.091 1702.12 461.111 1702.89 462.414C1704.59 465.313 1705.93 467.784 1710.07 465.427C1711.65 464.527 1714.18 465.281 1716.51 466.122C1715.46 466.561 1713.73 466.792 1713.52 467.484C1713.13 468.766 1713.14 471.193 1713.85 471.6C1716.67 473.197 1719.75 474.443 1722.87 475.309C1724.52 475.766 1726.46 475.17 1728.15 475.057C1728.57 476.942 1729.08 479.236 1729.61 481.625C1731.88 481.446 1733.61 481.31 1735.35 481.173C1735.64 487.655 1738.8 489.889 1744.83 486.911C1747.2 490.434 1749.29 494.474 1752.27 497.698C1755.25 500.922 1759.14 503.287 1762.57 506.109C1765.35 508.397 1768.03 510.803 1770.76 513.157C1770.23 513.467 1769.71 513.777 1769.18 514.087C1770.07 516.614 1770.63 519.342 1772.01 521.568C1772.55 522.451 1774.9 522.221 1776.96 522.595C1776.85 523.955 1776.68 526.043 1776.44 529.071C1778.59 529.24 1780.85 529.418 1781.93 529.503C1783.1 536.299 1784.3 543.014 1785.4 549.746C1786.32 555.424 1787.84 561.117 1787.87 566.81C1788.1 604.639 1787.99 642.469 1787.99 680.298C1787.99 691.882 1787.88 703.467 1788.05 715.048C1788.15 722.675 1788.88 730.295 1788.94 737.922C1789.08 755.502 1789.07 773.085 1788.94 790.665C1788.89 798.214 1788.39 805.759 1788.11 813.306C1788.09 813.801 1787.95 814.408 1788.17 814.778C1794.12 824.659 1789.57 835.475 1790.96 845.755C1784.77 858.686 1789.09 872.401 1788.11 885.721C1787.46 894.481 1787.99 903.326 1787.99 912.563C1789.42 912.149 1790.38 911.873 1790.99 911.7C1790.99 914.623 1791.14 917.416 1790.96 920.189C1790.37 929.374 1789.52 938.545 1789.09 947.736C1788.98 950.041 1790.1 952.394 1790.57 954.742C1790.76 955.693 1791.08 956.825 1790.75 957.642C1787.89 964.854 1788.64 971.831 1790.58 979.242C1791.67 983.423 1790.14 988.301 1789.72 992.859C1789.58 994.483 1789.04 996.088 1789.02 997.706C1788.94 1004.54 1788.73 1011.38 1789.06 1018.2C1789.4 1025.04 1791.69 1032.05 1790.71 1038.63C1788.23 1055.37 1789.59 1072.12 1788.87 1088.85C1788.74 1092.03 1787.12 1095.13 1786.43 1098.32C1786.05 1100.07 1786.32 1101.95 1786.06 1103.75C1785.82 1105.46 1785.15 1107.11 1784.9 1108.82C1784.58 1111.05 1784.37 1113.31 1784.37 1115.56C1784.36 1117.1 1784.78 1118.65 1785.1 1120.8C1783.49 1120.18 1782.64 1119.86 1781.66 1119.48C1781.79 1122.34 1781.91 1125.08 1782.05 1128.06C1780.37 1128.64 1778.88 1129.14 1777.22 1129.71C1777.07 1132.23 1776.93 1134.68 1776.8 1136.78C1774.46 1137.4 1772.43 1137.95 1770.39 1138.49C1771.91 1143.62 1760.42 1145.98 1768.02 1152.7C1763.19 1150.4 1760.01 1151.06 1758.28 1155.88C1758.06 1156.49 1756.6 1156.69 1755.68 1157.01C1751.55 1158.44 1752.55 1161.79 1752.77 1165.39C1749.72 1166.62 1746.53 1167.9 1743.38 1169.17C1738.06 1172.91 1732.61 1176.76 1726.67 1180.93C1728.77 1182.19 1730.13 1183 1731.48 1183.81C1731.44 1184.19 1731.4 1184.56 1731.36 1184.94C1729.48 1184.67 1727.32 1184.9 1725.77 1184.03C1722.48 1182.18 1720.43 1183.52 1719.47 1186.33C1717.94 1190.81 1715.49 1191.6 1711.85 1189.22C1709.61 1190.74 1707.56 1192.14 1705.86 1193.3C1705.76 1195.08 1705.68 1196.6 1705.59 1198.13C1704.18 1197.72 1702.78 1197.24 1701.35 1196.91C1700.31 1196.68 1698.88 1196.16 1698.21 1196.62C1692.34 1200.61 1686.63 1204.83 1680.79 1208.86C1680.02 1209.39 1678.8 1209.38 1677.78 1209.39C1673.59 1209.44 1671.12 1212.6 1672.25 1216.55C1669.93 1218.67 1663.28 1212.15 1664.35 1220.83C1662.02 1220.94 1659.89 1221.05 1657.54 1221.17C1658.77 1230.1 1651.82 1223 1649.35 1225.97C1649.98 1226.87 1650.74 1227.97 1651.72 1229.38C1650.6 1230.42 1649.54 1231.71 1648.18 1232.45C1647.74 1232.69 1646.43 1231.58 1645.67 1230.91C1645.16 1230.46 1645.06 1229.38 1644.53 1229.13C1642.53 1228.22 1633.11 1234.51 1633.03 1236.86C1632.9 1240.11 1632.65 1242.69 1628.59 1239.65C1628.06 1239.25 1626.89 1239.14 1626.31 1239.45C1622.89 1241.24 1619.55 1243.2 1615.58 1245.44C1617.3 1246.56 1618.37 1247.26 1620.25 1248.48C1618.18 1248.69 1616.78 1249.26 1615.79 1248.86C1611.14 1246.95 1608.97 1249.06 1606.76 1253C1605.28 1255.65 1602.26 1257.44 1600.63 1258.96C1597.79 1258.36 1595.45 1257.23 1593.5 1257.71C1592.56 1257.94 1592.37 1261.21 1591.88 1263C1589.13 1263.48 1585.87 1264.03 1582.61 1264.64C1578.9 1265.34 1575.95 1266.78 1576.74 1271.44C1574.08 1271.9 1571.75 1272.3 1568.53 1272.85C1570.01 1274.41 1570.81 1275.24 1571.6 1276.07C1571.56 1276.52 1571.53 1276.97 1571.5 1277.42C1567.84 1277.08 1564.19 1276.74 1559.15 1276.27C1560.88 1278.6 1561.59 1279.57 1562.42 1280.68C1558.67 1280.87 1555.26 1281.04 1551.7 1281.21C1552.23 1283.95 1552.57 1285.66 1552.83 1287.01C1549.85 1286.47 1547.47 1286.04 1545.08 1285.62C1545.08 1287.19 1545.08 1288.76 1545.08 1290.42C1542.63 1290.42 1539.46 1289.5 1537.32 1290.59C1531.22 1293.7 1525.55 1297.62 1519.71 1301.23C1517.35 1302.68 1515 1304.16 1512.31 1305.83C1513.07 1306.97 1513.89 1308.2 1514.89 1309.7C1513.92 1310.17 1513.01 1310.98 1512.54 1310.78C1505.21 1307.66 1500.61 1311.95 1495.68 1316.34C1493.3 1318.46 1489.9 1319.45 1486.92 1320.83C1484.02 1322.18 1481.05 1323.37 1478.12 1324.62C1477.9 1325.22 1477.67 1325.82 1477.45 1326.41C1478.66 1326.78 1479.88 1327.15 1481.1 1327.52C1480.86 1327.99 1480.62 1328.46 1480.37 1328.92C1478.38 1328.72 1476.39 1328.52 1474.31 1328.31C1470.37 1333.09 1465.09 1335.57 1458.97 1337.21C1455.4 1338.17 1452.37 1341.09 1449.05 1343.06C1447.79 1343.81 1446.35 1344.27 1445.08 1345.01C1443.68 1345.83 1441.14 1346.98 1441.23 1347.7C1442.22 1354.89 1436.06 1355.82 1432 1357.9C1428.4 1359.75 1424.36 1363.2 1419.65 1359.47C1419.3 1359.19 1417.35 1360.5 1416.46 1361.39C1414.18 1363.68 1412.46 1366.79 1409.8 1368.35C1407.59 1369.64 1404.36 1369.19 1401.24 1369.55C1401.74 1370.78 1402.21 1371.93 1402.79 1373.38C1399.42 1374.62 1397.08 1378.49 1392.46 1375.65C1391.3 1374.94 1387.28 1376.52 1386.49 1378.03C1383.83 1383.16 1378.29 1382.75 1374.41 1385.36C1372.33 1386.76 1370.14 1388 1366.94 1389.95C1369.69 1390.79 1371.09 1391.22 1372.49 1391.65C1372.46 1392.01 1372.43 1392.37 1372.41 1392.73C1368.2 1392.73 1363.99 1392.73 1359.61 1392.73C1360.13 1395.12 1360.5 1396.81 1360.85 1398.4C1357.7 1398.18 1355.26 1398.02 1352.83 1397.85C1353.01 1399.34 1353.2 1400.83 1353.48 1403.07C1350.81 1402.32 1348.35 1401.63 1345.72 1400.89C1345.47 1403.78 1345.27 1406.16 1345.06 1408.54C1344.71 1408.92 1344.35 1409.31 1344 1409.7C1342.27 1403.61 1339.92 1404.64 1336.69 1407.43C1334.78 1409.07 1331.97 1409.68 1329.27 1410.89C1329.11 1412.09 1328.92 1413.54 1328.73 1414.99C1322.96 1415.34 1313.04 1421.08 1312.57 1422.85C1308.86 1424.94 1306.29 1426.4 1303.71 1427.83C1302.36 1428.58 1301.04 1429.71 1299.61 1429.9C1293.73 1430.67 1289.01 1434.9 1288.02 1441.03C1286.1 1440.88 1284.15 1440.64 1282.2 1440.61C1280.93 1440.59 1279.33 1440.45 1278.42 1441.11C1273.69 1444.53 1269.39 1448.6 1264.45 1451.65C1260 1454.39 1254.91 1456.11 1249.24 1458.67C1249.18 1459.03 1248.91 1460.6 1248.76 1461.46C1246.03 1462.16 1243.75 1462.75 1241.47 1463.33C1242.23 1465.12 1242.99 1466.91 1244.44 1470.31C1241.94 1469.41 1240.03 1469.26 1239.01 1468.23C1237.33 1466.54 1235.71 1464.73 1233.85 1467.16C1233.12 1468.11 1234.21 1470.47 1234.55 1472.66C1234.36 1472.69 1233.23 1473.14 1232.24 1472.93C1228.28 1472.09 1224.5 1471.04 1222.61 1476.42C1222.3 1477.31 1219.67 1477.83 1218.13 1477.79C1213.04 1477.65 1210.23 1479.77 1209.66 1484.63C1209.38 1487.02 1203.98 1488.97 1201.35 1487.32C1201.88 1486.54 1202.18 1486.14 1202.49 1485.74C1202.23 1485.65 1201.78 1485.44 1201.75 1485.49C1201.46 1485.97 1201.24 1486.49 1201 1487C1197.79 1489.03 1194.66 1491.22 1191.35 1493.06C1188.08 1494.88 1184.55 1496.23 1181.26 1498.01C1179.73 1498.84 1178.49 1500.2 1177.12 1501.32C1178.65 1501.88 1180.17 1502.5 1181.72 1503C1182.57 1503.28 1183.48 1503.36 1184.36 1503.54C1184.33 1504.04 1184.29 1504.54 1184.25 1505.05C1181.02 1504.78 1177.8 1504.44 1174.57 1504.26C1172.26 1504.14 1169.94 1504.24 1167.21 1504.24C1168.08 1507.13 1168.56 1508.69 1168.94 1509.94C1165.78 1512.81 1162.79 1503.93 1160.19 1510.97C1161.38 1511.85 1162.6 1512.75 1163.82 1513.65C1163.81 1514.1 1163.8 1514.54 1163.79 1514.98C1162.29 1515.16 1160.05 1516.06 1159.42 1515.4C1155.65 1511.51 1152.33 1513.18 1148.79 1515.56C1147.46 1516.46 1145.88 1517 1143.63 1518.07C1145.74 1518.77 1147.12 1519.22 1148.49 1519.67C1148.48 1520.02 1148.47 1520.37 1148.46 1520.72C1144.96 1520.88 1141.46 1521.04 1137.96 1521.19C1138.3 1521.55 1138.65 1521.91 1138.99 1522.27C1135.05 1526.7 1131.12 1531.12 1127.73 1534.94C1125.03 1533.5 1123.45 1532.66 1121.87 1531.82C1122.16 1533.37 1122.44 1534.92 1122.73 1536.5C1118.49 1537.34 1114.21 1539.53 1108.5 1543.93C1107.02 1545.07 1105.47 1546.12 1104.34 1546.94C1101.86 1546.49 1099.47 1545.78 1097.11 1545.88C1096.69 1545.89 1096.42 1549.27 1096.15 1550.68C1093.13 1551.31 1089.81 1551.76 1086.66 1552.75C1083.37 1553.78 1079.58 1554.72 1080.9 1559.67C1073.52 1558.89 1073.52 1558.89 1072.54 1566.64C1067.81 1567.66 1062.91 1568.72 1057.47 1569.9C1057.24 1570.99 1056.88 1572.7 1056.52 1574.4C1056.27 1573.94 1056.02 1573.48 1055.77 1573.01C1052.93 1574.06 1049.98 1574.87 1047.28 1576.2C1040.82 1579.38 1034.36 1582.61 1028.12 1586.19C1024.16 1588.47 1020.58 1591.42 1016.52 1594.28C1016.85 1595.15 1017.39 1596.6 1018.34 1599.16C1014.96 1598.29 1012.48 1597.65 1009.65 1596.92C1009.54 1598.34 1009.46 1599.41 1009.35 1600.8C1005.55 1600.91 1001.95 1600.75 999.508 1605.22C998.355 1607.34 993.988 1608.46 990.988 1608.65C985.738 1608.99 984.614 1611.93 984.797 1616.61C983.148 1616.61 981.737 1616.57 980.33 1616.62C979.096 1616.67 977.141 1616.37 976.747 1617C973.092 1622.85 966.674 1623.35 961.104 1625.5C960.379 1625.78 959.779 1626.39 959.156 1626.82C961.869 1632.84 961.774 1632.98 955.051 1632.98C954.885 1632.98 954.718 1632.98 954.551 1632.98C946.145 1632.98 946.145 1632.98 944.127 1640.9C938.185 1635.96 934.037 1641.84 930.06 1644.04C923.362 1647.74 917.75 1653.41 911.43 1658.46C905.376 1655.79 904.198 1656.5 904.56 1663.76C902.947 1663.76 901.171 1664.22 899.794 1663.67C895.415 1661.94 892.647 1665.16 889.396 1666.73C887.282 1667.75 885.427 1669.32 883.488 1670.69C882.148 1671.64 880.862 1672.66 878.764 1674.24C878.095 1674.03 876.055 1673.41 873.831 1672.73C873.788 1677.83 870.996 1680.39 865.513 1680.96C864.359 1681.07 863.183 1680.97 862.017 1680.99C856.137 1681.07 849.744 1679.34 846.147 1686.22C846.651 1686.78 847.69 1687.93 848.728 1689.08C847.011 1689.71 845.267 1690.94 843.582 1690.86C839.434 1690.67 834.581 1692.81 831.508 1687.88C831.231 1687.44 829.928 1687.31 829.228 1687.5C822.277 1689.4 815.353 1691.39 808.421 1693.35C808.428 1693.78 808.435 1694.2 808.441 1694.63C811.054 1694.86 813.667 1695.08 816.622 1695.34C812.527 1698.12 809.388 1697.62 804.359 1693.93C802.76 1695.17 801.224 1696.37 799.687 1697.56C799.364 1697.2 799.04 1696.84 798.717 1696.48C799.314 1695.67 799.911 1694.85 800.517 1694.02C796.48 1692.84 795.215 1693.46 795.185 1695.64C786.42 1696.36 777.768 1697.44 769.091 1697.71C757.961 1698.04 746.81 1697.73 735.358 1697.43C736.805 1696.87 738.551 1696.44 740.319 1696.29C761.663 1694.5 783.21 1694.02 804.31 1690.7C835.105 1685.85 864.844 1676.71 892.407 1661.61C903.888 1655.32 915.187 1648.7 926.537 1642.17C946.935 1630.45 967.314 1618.69 987.691 1606.93C1014.14 1591.66 1040.59 1576.42 1067 1561.09C1091.22 1547.04 1115.4 1532.91 1139.56 1518.78C1167.38 1502.51 1195.14 1486.16 1222.96 1469.9C1249.47 1454.4 1275.97 1438.9 1302.55 1423.53C1332.27 1406.36 1362.11 1389.41 1391.81 1372.22C1412.04 1360.5 1432.09 1348.47 1452.29 1336.71C1467.34 1327.95 1482.52 1319.42 1497.6 1310.74C1519.02 1298.4 1540.48 1286.11 1561.81 1273.61C1579.67 1263.15 1597.3 1252.26 1615.18 1241.84C1635.38 1230.07 1655.94 1218.91 1676 1206.92C1697.63 1193.99 1720.39 1182.85 1740.29 1167.1C1755.49 1155.06 1768.11 1140.93 1776.45 1123.31C1778.79 1118.39 1780.26 1113.05 1782.39 1107.24C1782.89 1103.43 1783.14 1100.29 1783.38 1097.15ZM1430.63 1354.5C1428.85 1354.6 1427.07 1354.7 1425.29 1354.79C1425.49 1355.59 1425.69 1356.39 1425.89 1357.19C1427.37 1356.49 1428.84 1355.8 1430.63 1354.5ZM1600.3 1254.42C1600.01 1254.63 1599.72 1254.85 1599.43 1255.07C1599.6 1255.25 1599.78 1255.44 1599.96 1255.62C1600.19 1255.34 1600.42 1255.06 1600.3 1254.42ZM1066.3 1564.42C1066.01 1564.64 1065.72 1564.85 1065.43 1565.07C1065.61 1565.25 1065.78 1565.44 1065.96 1565.62C1066.19 1565.34 1066.42 1565.06 1066.3 1564.42ZM956.623 1630.79C956.263 1630.74 955.903 1630.69 955.543 1630.64C955.541 1630.9 955.538 1631.16 955.536 1631.42C955.897 1631.38 956.258 1631.34 956.623 1630.79Z" fill="#FCF8DC"/>
<path d="M137.17 853.995C137.149 854.742 137.127 855.489 137.071 856.867C137.074 857.671 137.111 857.844 137.148 858.017C137.126 858.758 137.103 859.499 137.051 860.871C137.061 861.675 137.1 861.849 137.139 862.022C137.122 862.766 137.105 863.51 137.026 865.062C137.003 868.242 137.042 870.614 137.081 872.986C137.024 882.984 136.931 892.982 136.917 902.979C136.819 970.306 136.831 1037.63 136.628 1104.96C136.384 1186.1 136.005 1267.25 135.59 1348.39C135.47 1371.71 144.406 1391.45 159.123 1408.87C175.823 1428.64 197.265 1442.19 219.562 1454.72C244.794 1468.89 269.692 1483.66 294.769 1498.11C315.213 1509.89 335.729 1521.55 356.171 1533.34C380.373 1547.29 404.514 1561.35 428.709 1575.32C454.316 1590.1 479.978 1604.79 505.576 1619.59C526.308 1631.58 546.692 1644.2 567.782 1655.52C582.244 1663.28 597.458 1669.75 612.683 1675.95C633.878 1684.57 656.222 1689.15 678.778 1692.55C687.149 1693.81 695.628 1694.36 704.826 1695.47C708.72 1695.79 711.845 1695.87 714.971 1695.94C715.426 1695.98 715.88 1696.02 716.915 1696.08C717.496 1696.1 717.982 1696 717.982 1696C718.833 1696.19 719.683 1696.38 720.763 1696.8C716.275 1697.35 711.554 1697.98 706.841 1697.92C697.075 1697.8 687.312 1697.35 677.551 1696.96C675.651 1696.89 673.762 1696.49 671.901 1695.31C673.268 1695.13 674.635 1694.94 676.926 1694.64C672.445 1693.32 669.356 1692.19 666.173 1696.19C665.037 1697.62 660.837 1697.01 658.127 1696.65C656.212 1696.39 654.451 1694.98 652.01 1693.79C653.895 1693.21 655.319 1692.77 657.408 1692.13C656.382 1691.19 655.844 1690.25 655.157 1690.13C651.283 1689.41 647.374 1688.88 643.474 1688.3C642.996 1688.23 642.236 1688.08 642.05 1688.32C636.51 1695.37 631.121 1686.35 625.654 1689.13C625.6 1688.68 625.546 1688.22 625.491 1687.76C626.834 1687.3 628.176 1686.84 629.841 1686.26C623.482 1681.66 616.913 1679.69 610.255 1680.92C605.418 1674.94 598.888 1673.95 592.427 1672.23C592.198 1671.93 592.089 1671.95 591.981 1671.98C589.071 1670.95 585.625 1671.02 584.208 1667.18C583.924 1666.41 581.288 1666.55 579.755 1666.19C574.487 1664.96 569.227 1663.69 563.964 1662.44C564.044 1661.88 564.125 1661.32 564.206 1660.76C566.251 1660.76 568.297 1660.76 570.342 1660.76C570.504 1660.35 570.667 1659.94 570.829 1659.53C567.106 1657.8 563.33 1656.18 559.677 1654.32C557.375 1653.15 555.404 1651.21 553.02 1650.34C550.064 1649.27 546.834 1648.95 543.829 1648.32C544.069 1647.33 544.333 1646.24 544.598 1645.15C542.948 1645.07 540.719 1644.27 539.759 1645.04C537.293 1647.03 535.563 1646.89 532.651 1645.63C528.402 1643.8 528.33 1641.77 530.934 1638.54C526.855 1634.11 523.156 1630.29 516.253 1632.7C514.196 1633.41 511.068 1631.47 508.574 1630.4C506.078 1629.34 503.666 1628 501.396 1626.51C499.318 1625.15 495.586 1624.77 497.441 1620.47C497.682 1619.91 495.386 1617.58 493.937 1617.14C492.021 1616.54 489.781 1616.99 487.681 1616.99C487.347 1616.45 487.013 1615.91 486.679 1615.37C487.826 1615.21 488.974 1615.05 490.121 1614.88C489.929 1614.34 489.737 1613.8 489.544 1613.27C484.964 1614.19 479.198 1617.06 481.063 1608.15C479.256 1608.29 478.095 1608.16 477.083 1608.5C474.497 1609.34 473.34 1608.37 472.983 1605.83C472.468 1602.15 470.014 1601.14 466.606 1600.92C461.959 1600.63 456.559 1601.3 455.379 1594.51C455.349 1594.35 451.699 1594.81 449.369 1594.99C449 1595 449.007 1595.01 449.007 1595.01C448.929 1593.55 448.852 1592.09 448.773 1590.61C445.672 1589.32 441.638 1589.96 440.738 1585.49C440.626 1584.93 438.242 1584.6 436.9 1584.56C434.836 1584.51 432.764 1584.81 431.005 1584.94C431.587 1582.88 432.04 1581.28 432.493 1579.68C430.807 1579.79 429.027 1579.6 427.456 1580.09C424.056 1581.14 417.932 1577.46 417.042 1573.53C416.828 1572.59 416.801 1571.61 416.642 1570.26C413.954 1569.82 411.385 1569.13 408.793 1569.03C401.608 1568.75 401.604 1568.84 400.473 1561.24C395.293 1563.97 392.365 1551.07 385.929 1560.81C385.624 1560.29 385.319 1559.77 385.014 1559.25C385.654 1557.44 386.294 1555.63 387.121 1553.29C384.122 1552.92 380.997 1552.54 379 1552.3C376.97 1550.17 375.706 1547.79 373.825 1547.1C370.748 1545.97 368.089 1542.17 364.004 1544.83C363.594 1545.1 361.586 1544.04 361.606 1543.67C361.99 1536.56 355.331 1537.19 351.72 1534.52C351.595 1534.43 351.413 1534.42 352.025 1534.62C349.798 1535.53 348.163 1536.19 346.528 1536.86C346.221 1535.47 346.006 1534.05 345.58 1532.69C345.209 1531.51 344.675 1529.49 344.08 1529.44C342.293 1529.29 340.441 1529.93 337.437 1530.47C335.184 1528 332.52 1524.36 329.116 1521.65C327.473 1520.34 324.437 1520.78 322.027 1520.43C322.531 1515.93 319.244 1513.12 311.369 1511.7C310.543 1511.11 310.142 1510.81 309.741 1510.51C309.65 1510.77 309.437 1511.22 309.486 1511.25C309.963 1511.54 310.484 1511.77 310.992 1512.01C310.069 1512.95 309.146 1513.9 308.223 1514.84C307.16 1513.51 305.194 1512.18 305.202 1510.87C305.228 1506.77 304.208 1504.39 299.575 1504.92C298.883 1504.99 297.644 1504.56 297.446 1504.06C294.858 1497.45 292.625 1502.21 290.012 1504.73C288.95 1503.42 288.019 1502.27 286.732 1500.69C288.54 1500.53 289.689 1500.43 291.241 1500.3C288.167 1493.81 281.978 1499.62 278.134 1496.19C279.087 1495.39 279.867 1494.74 280.646 1494.09C280.546 1493.73 280.446 1493.38 280.346 1493.03C278.349 1493.42 276.351 1493.81 273.835 1494.3C273.438 1492.96 272.948 1491.29 272.507 1489.8C268.302 1488.62 264.173 1487.46 258.915 1485.99C261.257 1484.54 262.496 1483.77 264.361 1482.62C262.808 1481.89 261.826 1481.48 260.904 1480.97C256.579 1478.58 251.235 1478.58 247.605 1474.16C246.053 1472.27 242.046 1472.39 238.844 1471.52C238.944 1471.27 239.433 1470.07 239.873 1468.98C236.247 1465.29 232.466 1475.27 228.851 1468.18C230.202 1467.45 231.374 1466.82 232.45 1466.24C230.177 1464.7 228.03 1463.26 225.512 1461.56C221.703 1464.12 220.049 1462.09 217.528 1458.06C215.292 1454.48 210.573 1452.33 206.705 1449.95C204.119 1448.36 201.103 1447.47 198.189 1446.22C197.092 1447.47 195.91 1448.82 193.868 1451.15C193.434 1448.65 192.972 1447.43 193.068 1446.27C193.376 1442.48 191.91 1441.27 188.025 1440.7C185.483 1440.32 182.578 1437.7 181.218 1435.3C179.79 1432.78 178.65 1432.14 175.922 1432.36C174.343 1432.49 172.191 1431.56 171.075 1430.38C165.866 1424.86 160.801 1419.18 155.959 1413.34C154.094 1411.09 152.955 1408.23 150.913 1404.65C144.974 1403.82 145.161 1397.55 144.626 1392.5C142.288 1392.38 138.814 1392.65 138.687 1392.12C137.812 1388.49 137.517 1384.7 137.292 1380.95C137.175 1378.99 138.289 1375.59 137.641 1375.27C131.981 1372.45 134.569 1368.05 134.985 1364.05C135.052 1363.4 134.995 1362.75 134.995 1362.67C133.754 1362.28 132.797 1361.97 131.441 1361.53C131.16 1363.71 130.86 1366.04 130.56 1368.36C130.258 1368.34 129.955 1368.32 129.652 1368.3C130.103 1340.75 130.867 1313.19 130.917 1285.64C130.967 1257.84 130.309 1230.04 131.038 1202.21C131.038 1206.92 131.038 1211.63 131.038 1216.34C131.384 1216.4 131.731 1216.46 132.077 1216.52C132.366 1216.06 132.902 1215.6 132.906 1215.13C132.979 1206.13 133.004 1197.14 132.993 1188.14C132.992 1187.35 132.854 1185.96 132.477 1185.85C126.974 1184.17 129.169 1179.65 129.105 1176.29C128.883 1164.63 129.019 1152.97 129.019 1141.3C129.019 1139.77 129.019 1138.24 129.019 1136.71C129.607 1136.7 130.195 1136.68 130.783 1136.67C130.783 1146.56 130.783 1156.45 130.783 1166.35C131.232 1166.39 131.68 1166.44 132.129 1166.49C132.423 1165.72 132.969 1164.96 132.973 1164.19C133.034 1152.78 132.914 1141.36 133.072 1129.95C133.158 1123.66 133.949 1117.37 133.964 1111.08C134.054 1073.09 134.019 1035.1 133.978 997.108C133.977 995.856 133.562 994.569 133.153 993.362C132.526 991.509 131.133 989.718 131.112 987.889C130.943 973.062 131.021 958.231 131.02 943.402C131.019 921.327 130.995 899.252 131.04 877.177C131.045 874.574 129.901 871.323 134.154 870.451C134.555 870.369 135.124 867.543 134.582 866.975C129.326 861.458 132.534 855.657 133.722 849.922C134.115 848.023 134.835 846.157 134.967 844.246C135.744 833.009 136.458 821.767 137.014 810.517C137.1 808.783 136.191 807.016 135.883 805.24C135.652 803.909 135.648 802.539 135.542 801.187C135.968 801.131 136.393 801.074 136.818 801.017C137.482 802.196 138.147 803.375 138.811 804.554C139.288 804.51 139.766 804.466 140.243 804.422C140.008 802.358 139.774 800.294 139.474 797.654C142.544 794.714 148.377 792.421 145.035 785.318C149.634 785.678 152.333 783.909 153.196 779.694C153.352 778.935 153.872 777.973 154.506 777.633C159.037 775.202 156.884 773.551 153.984 771.825C153.525 771.552 153.343 770.813 153.034 770.29C153.255 769.841 153.476 769.392 153.697 768.942C155.809 769.764 157.92 770.586 160.289 771.509C161.749 769.043 163.351 766.336 165.214 763.188C164.053 761.624 162.401 759.4 160.749 757.176C161.047 756.886 161.345 756.597 161.643 756.308C164.392 758.022 167.142 759.736 169.891 761.449C170.395 760.819 170.9 760.189 171.404 759.56C169.54 757.647 167.676 755.735 164.639 752.62C169.248 753.916 172.706 754.888 176.767 756.031C176.921 753.015 177.054 750.433 177.202 747.535C184.859 751.03 188.56 742.864 195.487 743.345C194.454 740.557 193.919 739.112 193.69 738.493C198.317 737.635 202.738 736.815 207.562 735.98C207.966 735.965 208.166 736.176 208.073 736.545C202.619 740.439 197.078 743.721 191.934 747.539C180.764 755.83 169.235 763.889 161.075 775.394C154.881 784.127 148.575 793.023 144.089 802.671C136.567 818.851 136.44 836.466 137.17 853.995ZM535.6 1643.95C536.209 1643.02 536.817 1642.08 537.426 1641.15C536.23 1640.87 535.034 1640.6 533.838 1640.32C534.175 1641.49 534.511 1642.65 535.6 1643.95ZM407.774 1565.5C406.687 1565.45 405.6 1565.39 403.347 1565.29C407.296 1568.01 407.296 1568.01 407.774 1565.5ZM511.004 1625.13C510.136 1625.34 509.269 1625.54 508.401 1625.75C508.615 1626.27 508.829 1626.79 509.042 1627.31C509.9 1626.67 510.758 1626.03 511.004 1625.13ZM503.875 1622.41C503.163 1622.08 502.451 1621.75 501.739 1621.42C501.663 1621.84 501.587 1622.27 501.511 1622.69C502.265 1622.82 503.02 1622.95 503.875 1622.41ZM133.877 1354.2C133.765 1354.09 133.668 1353.91 133.535 1353.88C133.448 1353.85 133.21 1354.03 133.206 1354.12C133.176 1354.77 133.19 1355.43 133.19 1356.08C133.365 1356.08 133.539 1356.08 133.714 1356.09C133.798 1355.64 133.883 1355.19 133.877 1354.2Z" fill="#FCF8DC"/>
<path d="M1791.98 881C1791.98 887.429 1791.98 893.358 1791.98 899.286C1791.55 899.286 1791.13 899.286 1790.7 899.286C1790.7 887.105 1790.7 874.924 1790.7 862.742C1791.13 862.717 1791.55 862.693 1791.98 862.668C1791.98 868.612 1791.98 874.556 1791.98 881Z" fill="#FCF8DC"/>
<path d="M448.996 1595C447.882 1595.97 446.512 1597.95 445.709 1597.75C443.164 1597.09 440.831 1595.61 438.416 1594.45C438.758 1593.77 439.039 1592.56 439.452 1592.51C440.832 1592.36 442.335 1592.37 443.647 1592.78C445.247 1593.28 446.7 1594.25 448.612 1595.01C449.008 1595.01 449 1595 448.996 1595Z" fill="#FCF8DC"/>
<path d="M875 340.76C874.151 341.625 873.032 342.242 871.912 342.858C871.661 342.144 871.409 341.43 871.158 340.716C872.348 340.648 873.539 340.58 875 340.76Z" fill="#FCF8DC"/>
<path d="M137.397 853.744C136.441 836.466 136.567 818.851 144.09 802.671C148.575 793.023 154.882 784.127 161.076 775.393C169.235 763.889 180.764 755.829 191.934 747.539C197.078 743.721 202.62 740.439 208.174 736.65C217.194 731.557 226.089 726.843 234.835 721.869C248.215 714.261 261.529 706.534 274.804 698.745C292.079 688.609 309.225 678.254 326.542 668.193C347.19 656.196 367.993 644.467 388.669 632.517C405.59 622.736 422.41 612.78 439.299 602.943C452.481 595.264 465.72 587.681 478.899 579.996C502.745 566.092 526.532 552.086 550.407 538.231C567.487 528.319 584.713 518.657 601.794 508.746C617.133 499.845 632.321 490.684 647.654 481.772C662.524 473.128 677.517 464.695 692.413 456.094C701.568 450.808 710.591 445.294 719.763 440.039C733.515 432.161 747.425 424.555 761.122 416.584C775.846 408.014 790.349 399.065 805.047 390.449C817.61 383.083 830.345 376.011 842.944 368.705C854.857 361.797 866.653 354.688 878.572 347.789C891.463 340.327 904.465 333.056 917.362 325.603C923.97 321.784 930.419 317.69 937.003 313.829C949.256 306.644 961.572 299.567 973.831 292.392C987.648 284.305 1001.33 275.985 1015.26 268.085C1032.42 258.344 1050.06 249.404 1069.04 243.815C1085.5 238.968 1102.15 234.482 1118.99 231.258C1148.48 225.607 1178.46 224.512 1208.37 226.199C1226.68 227.232 1245.01 229.837 1263.07 233.153C1285.72 237.312 1307.79 244.171 1328.82 253.571C1342.03 259.475 1354.42 267.224 1367.09 274.302C1380.54 281.811 1393.94 289.406 1407.26 297.145C1422.57 306.048 1437.73 315.225 1453.04 324.143C1465.76 331.547 1478.62 338.693 1491.36 346.051C1506.1 354.564 1520.73 363.272 1535.5 371.736C1555.11 382.978 1574.86 393.998 1594.47 405.245C1605.49 411.564 1616.32 418.212 1627.31 424.597C1640.2 432.092 1653.2 439.401 1666.09 446.906C1680.51 455.309 1694.92 463.748 1709.23 472.349C1719.3 478.403 1729.66 484.129 1739.07 491.107C1756.36 503.93 1770.43 519.851 1779.3 539.672C1785.58 553.7 1787.22 568.71 1786.12 584.466C1784.76 589.626 1783.69 594.416 1782.07 599.012C1776.3 615.372 1766.85 629.381 1754.01 640.987C1746.66 647.631 1739.31 654.43 1731.18 660.018C1720.25 667.527 1708.61 674.013 1697.19 680.794C1683.87 688.703 1670.48 696.495 1657.08 704.267C1647.45 709.853 1637.71 715.251 1628.1 720.866C1620.86 725.093 1613.8 729.61 1606.57 733.856C1598.62 738.53 1590.58 743.053 1582.56 747.621C1574.54 752.192 1566.5 756.728 1558.48 761.298C1546.93 767.881 1535.33 774.393 1523.85 781.093C1508.93 789.794 1494.15 798.738 1479.21 807.397C1473.06 810.959 1466.53 813.853 1460.39 817.416C1454.14 821.037 1448.26 825.275 1442.04 828.943C1433.28 834.106 1424.32 838.93 1415.52 844.015C1404.37 850.452 1393.29 857.021 1382.17 863.504C1366.85 872.436 1351.49 881.304 1336.19 890.271C1327.45 895.389 1318.86 900.762 1310.09 905.815C1301.64 910.683 1292.94 915.131 1284.52 920.04C1269.57 928.748 1254.8 937.76 1239.85 946.471C1222.28 956.708 1204.59 966.734 1186.99 976.904C1179.02 981.507 1171.12 986.232 1163.19 990.906C1156.04 995.119 1148.91 999.361 1141.75 1003.55C1129.75 1010.56 1117.73 1017.53 1105.74 1024.54C1096.93 1029.69 1088.2 1034.96 1079.35 1040.04C1071.95 1044.3 1064.36 1048.24 1056.98 1052.54C1046.16 1058.85 1035.51 1065.44 1024.69 1071.75C1013.36 1078.36 1001.92 1084.79 990.529 1091.28C984.061 1094.97 977.575 1098.63 971.107 1102.31C963.412 1106.7 955.695 1111.05 948.048 1115.52C940.578 1119.88 933.254 1124.5 925.741 1128.79C914.741 1135.07 903.865 1141.63 892.502 1147.19C880.838 1152.89 868.981 1158.61 856.617 1162.38C837.837 1168.1 818.673 1172.78 799.425 1176.68C787.989 1179 776.078 1178.98 764.38 1180.01C756.969 1180.66 749.563 1181.42 742.139 1181.87C739.712 1182.02 737.234 1181.33 734.351 1181.06C703.189 1181.78 672.953 1177.55 643.391 1169.77C625.194 1164.98 607.26 1158.57 589.984 1151.1C575.811 1144.97 562.781 1136.19 549.248 1128.58C538.163 1122.34 527.023 1116.2 516.02 1109.83C505.429 1103.69 495.033 1097.22 484.459 1091.06C474.028 1084.97 463.464 1079.12 452.989 1073.11C445.517 1068.83 438.113 1064.42 430.645 1060.13C422.055 1055.19 413.392 1050.38 404.827 1045.4C391.814 1037.82 378.918 1030.05 365.862 1022.55C349.898 1013.39 333.797 1004.46 317.801 995.344C309.016 990.339 300.324 985.168 291.592 980.07C274.578 970.137 257.473 960.356 240.576 950.227C221.187 938.603 200.643 928.933 182.81 914.662C168.911 903.538 156.557 891.291 148.582 875.23C144.574 867.159 141.265 858.742 138.388 849.954C138.133 851.133 137.879 852.313 137.397 853.744ZM1054.48 537.4C1054.94 538.289 1055.41 539.178 1055.92 540.9C1056.94 545.242 1057.44 549.781 1059.05 553.891C1066.14 572.034 1078.69 585.96 1093.76 597.881C1114.12 613.982 1137.57 624.035 1162 631.682C1192.25 641.154 1223.6 644.247 1255.18 644.886C1263.13 645.047 1271.12 644.583 1279.06 643.914C1288.94 643.08 1298.88 642.22 1308.64 640.511C1328.23 637.081 1347.51 632.358 1366.06 624.913C1381.18 618.843 1395.59 611.542 1409.12 602.424C1421.7 593.943 1431.69 582.981 1440.52 570.825C1446.87 562.097 1451.4 552.231 1452.67 541.782C1454.26 528.809 1453.81 515.57 1453.93 502.443C1454.09 484.644 1453.96 466.842 1453.99 448.101C1454.49 426.648 1451.32 406.484 1437.15 388.943C1422.58 370.917 1405.07 356.965 1384.19 347.29C1375.46 343.243 1366.68 339.316 1357.45 336.139C1343.37 331.293 1329.4 326.811 1314.62 324.909C1299.89 323.012 1285.22 320.022 1270.43 319.278C1254.37 318.47 1238.19 319.583 1222.08 320.101C1216.48 320.281 1210.85 320.885 1205.32 321.83C1196.57 323.327 1187.76 324.752 1179.23 327.147C1165.3 331.061 1151.4 335.247 1137.84 340.259C1129.28 343.42 1121.19 347.988 1113.21 352.493C1106.22 356.44 1099.06 360.482 1093.08 365.741C1085.05 372.809 1077.34 380.522 1070.88 389.018C1065.27 396.402 1059.94 404.8 1057.51 413.586C1054.66 423.942 1055.07 435.199 1054.05 446.989C1054.36 476.993 1054.66 506.998 1054.48 537.4ZM435.012 807.953C435.012 834.119 434.841 860.286 435.13 886.449C435.206 893.348 435.943 900.432 437.698 907.083C442.271 924.414 452.549 938.264 465.661 950.246C482.787 965.896 502.619 976.941 524.149 985.136C541.996 991.93 560.238 997.46 579.221 999.904C593.006 1001.68 606.871 1002.98 620.739 1003.91C629.624 1004.5 638.625 1004.6 647.495 1003.91C664.814 1002.55 682.256 1001.49 699.324 998.48C725.707 993.825 751.008 985.321 774.344 971.796C781.338 967.743 788.501 963.706 794.654 958.549C802.255 952.178 809.253 944.976 815.849 937.546C827.461 924.466 833.732 908.983 834 891.391C834.433 862.956 834.625 834.517 834.971 805.203C834.648 800.414 834.403 795.618 833.981 790.837C833.574 786.232 833.552 781.489 832.366 777.075C829.243 765.457 823.3 754.987 815.903 745.753C805.848 733.201 793.334 723.116 779.378 714.995C773.252 711.43 767.117 707.822 760.718 704.802C752.536 700.939 744.313 696.884 735.692 694.3C723.728 690.713 711.479 687.82 699.167 685.712C682.903 682.927 666.509 680.039 650.078 679.317C632.893 678.563 615.586 680.101 598.354 681.045C579.381 682.085 561.03 686.477 542.813 691.765C524.609 697.049 507.715 705.064 490.997 713.828C478.6 720.327 468.388 729.371 458.761 739.066C453.368 744.497 448.984 751.196 445.252 757.937C441.463 764.783 437.799 772.143 436.335 779.714C434.623 788.569 435.348 797.897 435.012 807.953Z" fill="#FED869"/>
<path d="M1785.7 690.304C1786.02 729.656 1786.03 769.295 1786.03 808.933C1786.03 809.755 1785.83 810.576 1785.48 811.729C1784.83 810.719 1784.06 809.38 1784.06 808.038C1783.98 787.016 1783.92 765.994 1784.05 744.972C1784.1 736.706 1784.73 728.445 1784.93 720.178C1785.18 710.317 1785.25 700.453 1785.7 690.304Z" fill="#FED869"/>
<path d="M1784.71 930.307C1785.01 976.639 1785.02 1023.26 1785.02 1069.88C1785.02 1076.37 1785.08 1082.87 1784.98 1089.36C1784.95 1090.94 1784.38 1092.5 1783.7 1094.27C1783.56 1090.7 1783.97 1086.93 1783.97 1083.15C1784.02 1034.11 1784 985.064 1784.03 936.018C1784.03 934.211 1784.27 932.404 1784.71 930.307Z" fill="#FED869"/>
<path d="M1782.96 1097.11C1783.14 1100.29 1782.89 1103.43 1782.4 1106.85C1781.5 1104.82 1780.56 1102.53 1780.35 1100.18C1780.26 1099.21 1781.76 1098.11 1782.96 1097.11Z" fill="#FED869"/>
<path d="M714.721 1695.67C711.846 1695.87 708.72 1695.79 705.28 1695.47C708.134 1695.28 711.303 1695.33 714.721 1695.67Z" fill="#FDCB50"/>
<path d="M137.346 872.71C137.043 870.614 137.004 868.242 137.055 865.433C137.299 867.476 137.455 869.955 137.346 872.71Z" fill="#FED869"/>
<path d="M137.284 861.921C137.1 861.849 137.061 861.675 137.079 861.241C137.233 861.26 137.331 861.54 137.284 861.921Z" fill="#FED869"/>
<path d="M137.292 857.917C137.111 857.844 137.074 857.671 137.098 857.24C137.301 857.156 137.463 857.317 137.569 857.51C137.602 857.57 137.484 857.713 137.292 857.917Z" fill="#FED869"/>
<path d="M717.907 1695.83C717.983 1696 717.496 1696.1 717.256 1696.03C717.288 1695.87 717.559 1695.76 717.907 1695.83Z" fill="#FDCB50"/>
<path d="M1430.47 1354.8C1428.84 1355.8 1427.37 1356.49 1425.89 1357.19C1425.69 1356.39 1425.49 1355.59 1425.29 1354.79C1427.07 1354.7 1428.85 1354.6 1430.47 1354.8Z" fill="white"/>
<path d="M1600.48 1254.6C1600.42 1255.06 1600.19 1255.34 1599.96 1255.62C1599.78 1255.44 1599.6 1255.25 1599.43 1255.07C1599.72 1254.85 1600.01 1254.63 1600.48 1254.6Z" fill="white"/>
<path d="M1201.29 1486.97C1201.24 1486.49 1201.46 1485.97 1201.75 1485.49C1201.78 1485.44 1202.23 1485.65 1202.49 1485.74C1202.19 1486.14 1201.88 1486.54 1201.29 1486.97Z" fill="white"/>
<path d="M1066.48 1564.6C1066.42 1565.06 1066.19 1565.34 1065.96 1565.62C1065.79 1565.44 1065.61 1565.25 1065.43 1565.07C1065.72 1564.85 1066.01 1564.64 1066.48 1564.6Z" fill="white"/>
<path d="M956.621 1631.04C956.258 1631.34 955.897 1631.38 955.536 1631.42C955.538 1631.16 955.541 1630.9 955.543 1630.64C955.903 1630.69 956.263 1630.74 956.621 1631.04Z" fill="white"/>
<path d="M535.224 1643.88C534.511 1642.65 534.175 1641.49 533.838 1640.32C535.034 1640.6 536.23 1640.87 537.426 1641.15C536.817 1642.08 536.209 1643.02 535.224 1643.88Z" fill="white"/>
<path d="M408.037 1565.73C407.297 1568.01 407.297 1568.01 403.348 1565.29C405.601 1565.39 406.688 1565.45 408.037 1565.73Z" fill="white"/>
<path d="M511.31 1625.26C510.758 1626.03 509.9 1626.67 509.043 1627.31C508.829 1626.79 508.615 1626.27 508.401 1625.75C509.269 1625.54 510.136 1625.33 511.31 1625.26Z" fill="white"/>
<path d="M503.825 1622.74C503.02 1622.95 502.266 1622.82 501.511 1622.69C501.587 1622.27 501.663 1621.84 501.739 1621.42C502.451 1621.75 503.163 1622.08 503.825 1622.74Z" fill="white"/>
<path d="M133.923 1354.47C133.884 1355.19 133.799 1355.64 133.714 1356.09C133.54 1356.08 133.365 1356.08 133.191 1356.08C133.191 1355.43 133.177 1354.77 133.206 1354.12C133.211 1354.03 133.448 1353.85 133.535 1353.88C133.669 1353.91 133.765 1354.09 133.923 1354.47Z" fill="white"/>
<path d="M310.997 1512C310.485 1511.77 309.964 1511.54 309.487 1511.25C309.438 1511.22 309.651 1510.77 309.742 1510.51C310.143 1510.81 310.544 1511.11 310.976 1511.7C311.008 1511.99 311 1512 310.997 1512Z" fill="white"/>
<path d="M591.99 1671.99C592.089 1671.95 592.198 1671.93 592.165 1671.96C592.024 1672.02 592 1672 591.99 1671.99Z" fill="white"/>
<path d="M435.017 807.019C435.349 797.897 434.623 788.569 436.335 779.714C437.799 772.143 441.463 764.783 445.253 757.937C448.984 751.196 453.368 744.497 458.761 739.066C468.388 729.371 478.6 720.327 490.997 713.828C507.715 705.064 524.609 697.049 542.814 691.765C561.03 686.477 579.382 682.085 598.354 681.045C615.586 680.101 632.894 678.563 650.079 679.317C666.51 680.039 682.903 682.927 699.167 685.712C711.479 687.82 723.728 690.713 735.693 694.3C744.314 696.885 752.536 700.939 760.718 704.802C767.117 707.822 773.253 711.43 779.378 714.995C793.334 723.116 805.848 733.201 815.903 745.753C823.3 754.987 829.243 765.457 832.366 777.075C833.553 781.489 833.574 786.232 833.981 790.837C834.403 795.618 834.648 800.414 834.579 805.702C833.174 809.74 832.53 813.44 831.081 816.791C826.016 828.5 820.446 840.021 810.966 848.899C803.765 855.641 796.335 862.207 788.49 868.171C782.787 872.507 776.409 876.059 770.026 879.371C761.413 883.841 752.788 888.565 743.659 891.695C731.082 896.007 718.183 899.731 705.14 902.253C687.983 905.57 670.624 908.579 653.221 909.708C631.381 911.125 609.418 910.074 587.674 906.941C577.875 905.529 568.045 904.043 558.428 901.754C549.697 899.677 541.054 896.928 532.7 893.643C520.13 888.701 507.394 883.862 495.579 877.419C485.649 872.004 476.465 864.917 467.79 857.578C454.524 846.356 444.011 832.911 438.895 815.847C437.979 812.792 436.328 809.956 435.017 807.019Z" fill="#FDCB50"/>
<path d="M1054.07 446.066C1055.07 435.199 1054.66 423.943 1057.51 413.587C1059.94 404.8 1065.27 396.403 1070.88 389.019C1077.34 380.522 1085.05 372.81 1093.08 365.741C1099.06 360.482 1106.22 356.44 1113.21 352.493C1121.19 347.988 1129.28 343.421 1137.84 340.26C1151.4 335.247 1165.3 331.062 1179.23 327.147C1187.76 324.752 1196.57 323.327 1205.32 321.83C1210.85 320.886 1216.48 320.281 1222.08 320.101C1238.19 319.583 1254.37 318.47 1270.43 319.278C1285.22 320.022 1299.89 323.012 1314.62 324.909C1329.4 326.811 1343.37 331.293 1357.45 336.139C1366.68 339.316 1375.46 343.243 1384.19 347.29C1405.07 356.966 1422.58 370.917 1437.15 388.944C1451.32 406.484 1454.49 426.648 1453.62 448.626C1451.83 452.593 1450.56 456.103 1448.97 459.463C1445.84 466.086 1443.53 473.413 1439.09 479.039C1429.12 491.679 1417.68 503.079 1403.42 511.064C1392.37 517.257 1381.47 523.89 1369.89 528.936C1354.45 535.668 1338.14 539.958 1321.58 543.47C1301.53 547.721 1281.31 549.782 1260.94 549.857C1245.36 549.914 1229.67 549.501 1214.22 547.726C1199.7 546.057 1185.25 542.948 1171.07 539.319C1159.14 536.268 1147.42 532.1 1136 527.455C1118.56 520.358 1102.51 510.887 1088.25 498.276C1073.29 485.047 1061.03 470.372 1056.55 450.342C1056.2 448.809 1054.92 447.486 1054.07 446.066Z" fill="#FDCB50"/>
<path d="M1054.06 446.527C1054.92 447.486 1056.2 448.808 1056.55 450.342C1061.03 470.372 1073.29 485.047 1088.25 498.276C1102.51 510.887 1118.56 520.358 1136 527.455C1147.42 532.1 1159.14 536.268 1171.07 539.319C1185.25 542.948 1199.7 546.057 1214.22 547.725C1229.67 549.501 1245.36 549.914 1260.94 549.857C1281.31 549.782 1301.53 547.721 1321.58 543.47C1338.14 539.958 1354.45 535.668 1369.89 528.936C1381.47 523.89 1392.37 517.257 1403.42 511.064C1417.68 503.079 1429.12 491.679 1439.09 479.039C1443.53 473.413 1445.84 466.086 1448.97 459.463C1450.56 456.103 1451.83 452.593 1453.6 449.097C1453.96 466.842 1454.09 484.644 1453.93 502.443C1453.81 515.57 1454.26 528.809 1452.67 541.782C1451.4 552.231 1446.87 562.097 1440.52 570.826C1431.69 582.981 1421.7 593.943 1409.12 602.424C1395.59 611.543 1381.18 618.843 1366.06 624.913C1347.51 632.359 1328.23 637.081 1308.64 640.511C1298.88 642.221 1288.94 643.081 1279.06 643.914C1271.12 644.583 1263.13 645.047 1255.18 644.886C1223.6 644.247 1192.25 641.154 1162 631.682C1137.57 624.035 1114.12 613.982 1093.76 597.881C1078.69 585.96 1066.14 572.035 1059.05 553.891C1057.44 549.781 1056.94 545.242 1055.94 540.138C1055.63 538.584 1055.3 537.793 1054.97 537.003C1054.66 506.998 1054.36 476.994 1054.06 446.527Z" fill="#F7B930"/>
<path d="M435.014 807.486C436.328 809.957 437.979 812.792 438.895 815.848C444.011 832.911 454.524 846.356 467.789 857.578C476.465 864.917 485.649 872.005 495.579 877.419C507.394 883.862 520.13 888.701 532.7 893.643C541.054 896.928 549.697 899.677 558.428 901.755C568.045 904.043 577.875 905.529 587.674 906.941C609.418 910.074 631.381 911.125 653.221 909.708C670.624 908.579 687.983 905.571 705.14 902.253C718.182 899.731 731.081 896.007 743.659 891.695C752.788 888.565 761.413 883.842 770.026 879.372C776.408 876.059 782.787 872.507 788.49 868.172C796.335 862.208 803.765 855.642 810.966 848.899C820.446 840.022 826.016 828.5 831.081 816.791C832.53 813.44 833.174 809.74 834.553 806.141C834.625 834.518 834.433 862.956 834 891.391C833.732 908.983 827.462 924.466 815.849 937.546C809.253 944.977 802.255 952.179 794.654 958.549C788.501 963.706 781.338 967.743 774.344 971.797C751.008 985.322 725.707 993.826 699.324 998.48C682.256 1001.49 664.814 1002.55 647.495 1003.91C638.625 1004.6 629.624 1004.5 620.739 1003.91C606.871 1002.98 593.006 1001.68 579.221 999.904C560.238 997.46 541.996 991.93 524.149 985.136C502.619 976.941 482.787 965.896 465.661 950.246C452.549 938.264 442.271 924.414 437.698 907.083C435.943 900.432 435.206 893.348 435.13 886.449C434.841 860.287 435.012 834.119 435.014 807.486Z" fill="#F7B931"/>
<path d="M1054.72 537.201C1055.3 537.793 1055.63 538.584 1055.92 539.72C1055.41 539.177 1054.95 538.289 1054.72 537.201Z" fill="#FDCB50"/>
</svg>
